<?xml version="1.0" encoding="UTF-8" standalone="no"?>
<!-- Created with Inkscape (http://www.inkscape.org/) -->

<svg
   width="114.51657mm"
   height="52.793442mm"
   viewBox="0 0 114.51657 52.793442"
   version="1.1"
   id="svg5"
   xml:space="preserve"
   sodipodi:docname="discord.svg"
   inkscape:export-filename="github.svg"
   inkscape:export-xdpi="96"
   inkscape:export-ydpi="96"
   inkscape:version="1.2 (dc2aeda, 2022-05-15)"
   xmlns:inkscape="http://www.inkscape.org/namespaces/inkscape"
   xmlns:sodipodi="http://sodipodi.sourceforge.net/DTD/sodipodi-0.dtd"
   xmlns="http://www.w3.org/2000/svg"
   xmlns:svg="http://www.w3.org/2000/svg"><sodipodi:namedview
     id="namedview7"
     pagecolor="#ffffff"
     bordercolor="#000000"
     borderopacity="0.25"
     inkscape:showpageshadow="2"
     inkscape:pageopacity="0.0"
     inkscape:pagecheckerboard="0"
     inkscape:deskcolor="#d1d1d1"
     inkscape:document-units="mm"
     showgrid="false"
     inkscape:zoom="1.18039"
     inkscape:cx="318.96237"
     inkscape:cy="81.329051"
     inkscape:window-width="1512"
     inkscape:window-height="830"
     inkscape:window-x="0"
     inkscape:window-y="38"
     inkscape:window-maximized="0"
     inkscape:current-layer="layer1" /><defs
     id="defs2" /><g
     inkscape:label="Layer 1"
     inkscape:groupmode="layer"
     id="layer1"
     transform="translate(-44.791265,-74.650297)"><g
       fill="currentColor"
       id="g186"
       transform="matrix(0.31454726,0,0,0.31454726,41.315604,75.044012)"
       style="display:inline"
       inkscape:export-filename="discord.svg"
       inkscape:export-xdpi="96"
       inkscape:export-ydpi="96"><path
         id="Discord-Symbol-Black"
         d="m 206.10607,14.109933 c -0.904,1.60501 -1.71574,3.26538 -2.45364,4.96264 -7.01043,-1.05155 -14.15001,-1.05155 -21.17885,0 -0.71949,-1.69726 -1.54971,-3.35763 -2.45364,-4.96264 -6.58612,1.1254 -13.00621,3.09935 -19.09417,5.88504 -12.06532,17.8766 -15.3307,35.29191 -13.70722,52.46743 7.06574,5.22092 14.98017,9.20578 23.4111,11.75167 1.90017,-2.54589 3.57903,-5.25781 5.018,-8.08039 -2.7304,-1.01466 -5.36854,-2.2876 -7.89595,-3.76347 0.66412,-0.47968 1.30983,-0.97777 1.93706,-1.45745 14.81414,6.97355 31.97124,6.97355 46.80378,0 0.62723,0.51657 1.27295,1.01466 1.93707,1.45745 -2.52741,1.49427 -5.16556,2.74881 -7.91436,3.78195 1.43897,2.82258 3.11775,5.5345 5.018,8.08039 8.43071,-2.54589 16.34507,-6.51235 23.41138,-11.73319 1.91815,-19.9244 -3.28407,-37.19216 -13.74476,-52.48591 -6.06918,-2.78569 -12.48927,-4.75971 -19.0754,-5.86663 z m -28.39221,47.78155 c -4.55673,0 -8.33868,-4.13248 -8.33868,-9.24267 0,-5.11018 3.63433,-9.26115 8.32027,-9.26115 4.68594,0 8.41245,4.16937 8.33868,9.26115 -0.0738,5.09178 -3.67122,9.24267 -8.32027,9.24267 z m 30.73518,0 c -4.57528,0 -8.32027,-4.13248 -8.32027,-9.24267 0,-5.11018 3.63433,-9.26115 8.32027,-9.26115 4.68594,0 8.39404,4.16937 8.32019,9.26115 -0.0738,5.09178 -3.67121,9.24267 -8.32019,9.24267 z"
         style="display:inline;stroke-width:0.730444" /></g><text
       xml:space="preserve"
       style="font-style:normal;font-variant:normal;font-weight:normal;font-stretch:normal;font-size:16.3005px;font-family:Inter;-inkscape-font-specification:Inter;display:inline;fill:#000000;fill-opacity:1;fill-rule:evenodd;stroke:#000000;stroke-width:0;stroke-linecap:round;stroke-linejoin:round;stroke-miterlimit:1.5;stroke-dasharray:none;stroke-opacity:1"
       x="54.421593"
       y="119.57967"
       id="text359"
       inkscape:export-filename="instagram.svg"
       inkscape:export-xdpi="96"
       inkscape:export-ydpi="96"><tspan
         sodipodi:role="line"
         id="tspan357"
         style="font-style:normal;font-variant:normal;font-weight:bold;font-stretch:normal;font-family:Inter;-inkscape-font-specification:Inter;fill:#000000;fill-opacity:1;stroke:#000000;stroke-width:0;stroke-dasharray:none;stroke-opacity:1"
         x="54.421593"
         y="119.57967">@minthamie</tspan></text></g></svg>
