<?xml version="1.0" encoding="UTF-8" standalone="no"?>
<!-- Created with Inkscape (http://www.inkscape.org/) -->

<svg
   width="114.51657mm"
   height="52.793442mm"
   viewBox="0 0 114.51657 52.793442"
   version="1.1"
   id="svg5"
   xml:space="preserve"
   sodipodi:docname="discord.svg"
   inkscape:export-filename="github.svg"
   inkscape:export-xdpi="96"
   inkscape:export-ydpi="96"
   inkscape:version="1.2 (dc2aeda, 2022-05-15)"
   xmlns:inkscape="http://www.inkscape.org/namespaces/inkscape"
   xmlns:sodipodi="http://sodipodi.sourceforge.net/DTD/sodipodi-0.dtd"
   xmlns="http://www.w3.org/2000/svg"
   xmlns:svg="http://www.w3.org/2000/svg"><sodipodi:namedview
     id="namedview7"
     pagecolor="#ffffff"
     bordercolor="#000000"
     borderopacity="0.25"
     inkscape:showpageshadow="2"
     inkscape:pageopacity="0.0"
     inkscape:pagecheckerboard="0"
     inkscape:deskcolor="#d1d1d1"
     inkscape:document-units="mm"
     showgrid="false"
     inkscape:zoom="1.18039"
     inkscape:cx="318.96237"
     inkscape:cy="81.329051"
     inkscape:window-width="1512"
     inkscape:window-height="830"
     inkscape:window-x="0"
     inkscape:window-y="38"
     inkscape:window-maximized="0"
     inkscape:current-layer="layer1" /><defs
     id="defs2" /><g
     inkscape:label="Layer 1"
     inkscape:groupmode="layer"
     id="layer1"
     transform="translate(-44.791265,-74.650297)"><text
       xml:space="preserve"
       style="font-style:normal;font-variant:normal;font-weight:normal;font-stretch:normal;font-size:16.3005px;font-family:Inter;-inkscape-font-specification:Inter;display:inline;fill:#000000;fill-opacity:1;fill-rule:evenodd;stroke:#000000;stroke-width:0;stroke-linecap:round;stroke-linejoin:round;stroke-miterlimit:1.5;stroke-dasharray:none;stroke-opacity:1"
       x="52.291428"
       y="119.57967"
       id="text359"
       inkscape:export-filename="instagram.svg"
       inkscape:export-xdpi="96"
       inkscape:export-ydpi="96"><tspan
         sodipodi:role="line"
         id="tspan357"
         style="font-style:normal;font-variant:normal;font-weight:bold;font-stretch:normal;font-family:Inter;-inkscape-font-specification:Inter;fill:#000000;fill-opacity:1;stroke:#000000;stroke-width:0;stroke-dasharray:none;stroke-opacity:1"
         x="52.291428"
         y="119.57967">@MinThaMie</tspan></text><g
       id="g259"
       transform="matrix(0.04661331,0,0,0.04661331,90.116473,79.183656)"
       style="display:none"><path
         style="fill:#000000"
         d="m 256,49.471 c 67.266,0 75.233,0.257 101.8,1.469 24.562,1.121 37.9,5.224 46.778,8.674 a 78.052,78.052 0 0 1 28.966,18.845 78.052,78.052 0 0 1 18.845,28.966 c 3.45,8.877 7.554,22.216 8.674,46.778 1.212,26.565 1.469,34.532 1.469,101.8 0,67.268 -0.257,75.233 -1.469,101.8 -1.121,24.562 -5.225,37.9 -8.674,46.778 a 83.427,83.427 0 0 1 -47.811,47.811 c -8.877,3.45 -22.216,7.554 -46.778,8.674 -26.56,1.212 -34.527,1.469 -101.8,1.469 -67.273,0 -75.237,-0.257 -101.8,-1.469 -24.562,-1.121 -37.9,-5.225 -46.778,-8.674 A 78.051,78.051 0 0 1 78.456,433.547 78.053,78.053 0 0 1 59.611,404.581 c -3.45,-8.877 -7.554,-22.216 -8.674,-46.778 -1.212,-26.564 -1.469,-34.532 -1.469,-101.8 0,-67.268 0.257,-75.233 1.469,-101.8 1.121,-24.562 5.224,-37.9 8.674,-46.778 A 78.052,78.052 0 0 1 78.458,78.458 78.053,78.053 0 0 1 107.424,59.613 c 8.877,-3.45 22.216,-7.554 46.778,-8.674 26.565,-1.212 34.532,-1.469 101.8,-1.469 m 0,-45.391 c -68.418,0 -77,0.29 -103.866,1.516 -26.815,1.224 -45.127,5.482 -61.151,11.71 A 123.488,123.488 0 0 0 46.365,46.362 123.488,123.488 0 0 0 17.3,90.982 C 11.077,107.007 6.819,125.319 5.6,152.134 4.369,179 4.079,187.582 4.079,256 c 0,68.418 0.29,77 1.521,103.866 1.224,26.815 5.482,45.127 11.71,61.151 a 123.489,123.489 0 0 0 29.057,44.62 123.486,123.486 0 0 0 44.62,29.057 c 16.025,6.228 34.337,10.486 61.151,11.71 26.87,1.226 35.449,1.516 103.866,1.516 68.417,0 77,-0.29 103.866,-1.516 26.815,-1.224 45.127,-5.482 61.151,-11.71 a 128.817,128.817 0 0 0 73.677,-73.677 c 6.228,-16.025 10.486,-34.337 11.71,-61.151 1.226,-26.87 1.516,-35.449 1.516,-103.866 0,-68.417 -0.29,-77 -1.516,-103.866 -1.224,-26.815 -5.482,-45.127 -11.71,-61.151 A 123.486,123.486 0 0 0 465.641,46.363 123.487,123.487 0 0 0 421.018,17.3 C 404.993,11.077 386.681,6.819 359.866,5.6 333,4.369 324.418,4.079 256,4.079 v 0 z"
         id="path244" /><path
         style="fill:#000000"
         d="M 256,126.635 A 129.365,129.365 0 1 0 385.365,256 129.365,129.365 0 0 0 256,126.635 Z m 0,213.338 A 83.973,83.973 0 1 1 339.974,256 83.974,83.974 0 0 1 256,339.973 Z"
         id="path246" /><circle
         style="fill:#000000"
         cx="390.47601"
         cy="121.524"
         r="30.23"
         id="circle248" /></g><g
       fill="currentColor"
       id="g867"
       transform="matrix(0.32607554,0,0,0.32607554,87.049551,79.47569)"><path
         d="M 46.077045,0 C 26.527044,0 10.733711,15.793333 10.733711,35.343334 c 0,15.64 10.12,28.903333 24.15,33.58 1.763334,0.306667 2.453334,-0.766667 2.453334,-1.686667 0,-0.843333 -0.07667,-3.603333 -0.07667,-6.593333 -8.893333,1.61 -11.193334,-2.146667 -11.883334,-4.14 -0.38333,-0.996667 -2.146663,-4.14 -3.60333,-4.983334 -1.226667,-0.69 -2.99,-2.3 -0.07667,-2.376666 2.76,-0.07667 4.753334,2.53 5.443334,3.603333 3.22,5.366667 8.28,3.833334 10.273333,2.913334 0.306667,-2.3 1.226667,-3.833334 2.223334,-4.753334 -7.896667,-0.92 -16.100001,-3.91 -16.100001,-17.48 0,-3.833333 1.38,-7.053333 3.603334,-9.506667 -0.383334,-0.92 -1.61,-4.523333 0.383333,-9.353333 0,0 2.99,-0.92 9.736667,3.603333 2.836667,-0.766667 5.826667,-1.226667 8.816667,-1.226667 2.99,0 5.98,0.383334 8.816666,1.226667 6.746667,-4.6 9.736667,-3.603333 9.736667,-3.603333 1.916667,4.83 0.69,8.51 0.383334,9.353333 2.223333,2.453334 3.603333,5.596667 3.603333,9.506667 0,13.57 -8.28,16.56 -16.176667,17.48 1.303333,1.073333 2.376667,3.22 2.376667,6.516667 0,4.753333 -0.07667,8.51 -0.07667,9.736667 0,0.92 0.69,2.07 2.453333,1.686666 13.953334,-4.676666 24.073334,-17.94 24.073334,-33.58 C 81.497045,15.793333 65.627045,0 46.077045,0 Z"
         id="path863"
         style="stroke-width:0.766667" /></g></g></svg>
